<svg width="27" height="22" viewBox="0 0 27 22" fill="none" xmlns="http://www.w3.org/2000/svg">
<path d="M24 0H2.66667C1.2 0 0 1.2 0 2.66667V18.6667C0 20.1333 1.2 21.3333 2.66667 21.3333H24C25.4667 21.3333 26.6667 20.1333 26.6667 18.6667V2.66667C26.6667 1.2 25.4667 0 24 0ZM23.4667 5.66667L14.7467 11.12C13.88 11.6667 12.7867 11.6667 11.92 11.12L3.2 5.66667C3.0663 5.59161 2.94923 5.49022 2.85585 5.36861C2.76248 5.247 2.69475 5.1077 2.65677 4.95916C2.61878 4.81062 2.61134 4.65591 2.63488 4.50441C2.65841 4.3529 2.71245 4.20775 2.79371 4.07773C2.87497 3.94772 2.98177 3.83554 3.10763 3.74799C3.2335 3.66045 3.37583 3.59935 3.52599 3.5684C3.67616 3.53745 3.83104 3.53729 3.98127 3.56793C4.1315 3.59857 4.27395 3.65938 4.4 3.74667L13.3333 9.33333L22.2667 3.74667C22.3927 3.65938 22.5352 3.59857 22.6854 3.56793C22.8356 3.53729 22.9905 3.53745 23.1407 3.5684C23.2908 3.59935 23.4332 3.66045 23.559 3.74799C23.6849 3.83554 23.7917 3.94772 23.873 4.07773C23.9542 4.20775 24.0083 4.3529 24.0318 4.50441C24.0553 4.65591 24.0479 4.81062 24.0099 4.95916C23.9719 5.1077 23.9042 5.247 23.8108 5.36861C23.7174 5.49022 23.6004 5.59161 23.4667 5.66667Z" fill="white"/>
</svg>
