<svg width="24" height="24" viewBox="0 0 24 24" fill="none" xmlns="http://www.w3.org/2000/svg">
<path d="M15.056 9.00405C15.516 7.57705 15.749 6.32705 15.749 5.25005C15.749 2.85205 14.81 1.00305 13.249 1.00305C12.402 1.00305 12.14 1.50705 11.812 2.75005C11.83 2.68505 11.649 3.38405 11.597 3.57105C11.496 3.93005 11.32 4.54105 11.07 5.40205C11.0632 5.42506 11.0531 5.44696 11.04 5.46705L8.174 9.95305C7.49567 11.0138 6.49499 11.8291 5.319 12.2791L4.062 12.7611C3.67779 12.9082 3.35773 13.1861 3.15803 13.5458C2.95833 13.9055 2.89175 14.3241 2.97 14.7281L3.656 18.2671C3.73784 18.6892 3.93891 19.079 4.2354 19.3904C4.5319 19.7017 4.91141 19.9216 5.329 20.0241L13.579 22.0461C14.7951 22.344 16.0796 22.1497 17.1532 21.5055C18.2268 20.8613 19.0027 19.8193 19.312 18.6061L20.886 12.4331C20.9896 12.027 20.9991 11.6026 20.9136 11.1923C20.8282 10.7821 20.6501 10.3967 20.393 10.0658C20.1358 9.73488 19.8065 9.46709 19.4301 9.2829C19.0536 9.09871 18.6401 9.00299 18.221 9.00305L15.056 9.00405Z" fill="black"/>
</svg>
