<svg width="30" height="32" viewBox="0 0 30 32" fill="none" xmlns="http://www.w3.org/2000/svg">
<g clip-path="url(#clip0_10_8)">
<path d="M30.6273 7.99992C29.5773 8.46659 28.4455 8.77325 27.2727 8.91992C28.4727 8.21325 29.4 7.09325 29.8364 5.74659C28.7045 6.41325 27.45 6.87992 26.1273 7.14659C25.05 5.99992 23.5364 5.33325 21.8182 5.33325C18.6136 5.33325 15.9955 7.89325 15.9955 11.0533C15.9955 11.5066 16.05 11.9466 16.1455 12.3599C11.2909 12.1199 6.96819 9.83992 4.09092 6.38659C3.58637 7.22659 3.30001 8.21325 3.30001 9.25325C3.30001 11.2399 4.32273 12.9999 5.90455 13.9999C4.93637 13.9999 4.03637 13.7333 3.24546 13.3333V13.3733C3.24546 16.1466 5.26364 18.4666 7.93637 18.9866C7.07827 19.2162 6.17741 19.2481 5.30455 19.0799C5.67492 20.2166 6.40028 21.2111 7.37866 21.9238C8.35705 22.6365 9.53925 23.0315 10.7591 23.0533C8.69132 24.6538 6.12818 25.519 3.49092 25.5066C3.02728 25.5066 2.56364 25.4799 2.10001 25.4266C4.69091 27.0532 7.77273 27.9999 11.0727 27.9999C21.8182 27.9999 27.7227 19.2799 27.7227 11.7199C27.7227 11.4666 27.7227 11.2266 27.7091 10.9733C28.8545 10.1733 29.8364 9.15992 30.6273 7.99992Z" fill="white"/>
</g>
<defs>
<clipPath id="clip0_10_8">
<rect width="30" height="32" fill="white"/>
</clipPath>
</defs>
</svg>
